# xmcd
#
# Track frame offsets: 
#        150
#        15707
#        30115
#        44147
#        57460
#        70365
#        84032
#        96477
#        108287
#        123097
#        133117
#        144512
#        156500
#        169245
#        200097
#
# Disc length: 2870 seconds
#
# Revision: 2
# Processed by: cddbd v1.5.1PL0 Copyright (c) Steve Scherf et al.
# Submitted via: ExactAudioCopy v0.90b4
#
DISCID=d40b340f
DTITLE=Various Artist - The Blues - The Best Of 1920-1996 [CD3] Women Got 
DTITLE=The Blues [Sony][Canada]
DYEAR=2000
DGENRE=Blues
TTITLE0=Mamie Smith - Crazy Blues [1920]
TTITLE1=Bessie Smith - St. Louis Blues [1925]
TTITLE2=Victoria Spivey - Furniture Man... Pt.1 [1928]
TTITLE3=Nellie Florence - Midnight Weeping Blues [1928]
TTITLE4=Lucille Bogan - Shave 'Em Dry Pt.1 [1935]
TTITLE5=Lil Johnson - Sam The Hot Dog Man [1936]
TTITLE6=Memphis Minnie - Me And My Chauffeur Blues [1941]
TTITLE7=Merline Johnson - Bad Whiskey Blues [1947]
TTITLE8=Rosetta Howard - When I Been Drinking [1947]
TTITLE9=Pearl Traylor - Come On Daddy (Let's Go Play Tonight) [1951]
TTITLE10=Annie Laurie - Stop Talkin' And Start Walkin' [1952]
TTITLE11=Big Maybelle - Gabbin' Blues (Don't Run My Business) [1952]
TTITLE12=Jo-Ann Kelly - Come On In My Kitchen [1969]
TTITLE13=Little Esther - Little Esther's Blues [1970]
TTITLE14=Alberta Hunter - Amtrak Blues [1980]
EXTD=
EXTT0=
EXTT1=
EXTT2=
EXTT3=
EXTT4=
EXTT5=
EXTT6=
EXTT7=
EXTT8=
EXTT9=
EXTT10=
EXTT11=
EXTT12=
EXTT13=
EXTT14=
PLAYORDER=
